/* XPM */
static char *_81a9ea24d214cfbd4dd7d504dd20ee4R7AMZtkkeniF0gEm[] = {
/* columns rows colors chars-per-pixel */
"40 40 3 1 ",
"  c #DEC85F",
". c #E7D687",
"X c #EFE4B0",
/* pixels */
"                                        ",
"                                        ",
"  ....................................  ",
"  ....................................  ",
"  ....................................  ",
"  ....................................  ",
"  ....XXXXXXXXXXXXXXXXXXXXXXXXXXXX....  ",
"  ....XXXXXXXXXXXXXXXXXXXXXXXXXXXX....  ",
"  ....XXXXXXXXXXXXXXXXXXXXXXXXXXXX....  ",
"  ....XXXXXXXXXXXXXXXXXXXXXXXXXXXX....  ",
"  ....XXXXXXXXXXXXXXXXXXXXXXXXXXXX....  ",
"  ....XXXXXXXXXXXXXXXXXXXXXXXXXXXX....  ",
"  ....XXXXXXXXXXXXXXXXXXXXXXXXXXXX....  ",
"  ....XXXXXXXXXXXXXXXXXXXXXXXXXXXX....  ",
"  ....XXXXXXXXXXXXXXXXXXXXXXXXXXXX....  ",
"  ....XXXXXXXXXXXXXXXXXXXXXXXXXXXX....  ",
"  ....XXXXXXXXXXXXXXXXXXXXXXXXXXXX....  ",
"  ....XXXXXXXXXXXXXXXXXXXXXXXXXXXX....  ",
"  ....XXXXXXXXXXXXXXXXXXXXXXXXXXXX....  ",
"  ....XXXXXXXXXXXXXXXXXXXXXXXXXXXX....  ",
"  ....XXXXXXXXXXXXXXXXXXXXXXXXXXXX....  ",
"  ....XXXXXXXXXXXXXXXXXXXXXXXXXXXX....  ",
"  ....XXXXXXXXXXXXXXXXXXXXXXXXXXXX....  ",
"  ....XXXXXXXXXXXXXXXXXXXXXXXXXXXX....  ",
"  ....XXXXXXXXXXXXXXXXXXXXXXXXXXXX....  ",
"  ....XXXXXXXXXXXXXXXXXXXXXXXXXXXX....  ",
"  ....XXXXXXXXXXXXXXXXXXXXXXXXXXXX....  ",
"  ....XXXXXXXXXXXXXXXXXXXXXXXXXXXX....  ",
"  ....XXXXXXXXXXXXXXXXXXXXXXXXXXXX....  ",
"  ....XXXXXXXXXXXXXXXXXXXXXXXXXXXX....  ",
"  ....XXXXXXXXXXXXXXXXXXXXXXXXXXXX....  ",
"  ....XXXXXXXXXXXXXXXXXXXXXXXXXXXX....  ",
"  ....XXXXXXXXXXXXXXXXXXXXXXXXXXXX....  ",
"  ....XXXXXXXXXXXXXXXXXXXXXXXXXXXX....  ",
"  ....................................  ",
"  ....................................  ",
"  ....................................  ",
"  ....................................  ",
"                                        ",
"                                        "
};
