/* XPM */
static char *ad66080acd794680c11fb465c237b0feQfugNZyXyD6ajj9o[] = {
/* columns rows colors chars-per-pixel */
"40 40 2 1 ",
"  c black",
". c gray50",
/* pixels */
"........................................",
".                                      .",
".                                      .",
".                                      .",
".                                      .",
".                                      .",
"........................................",
"........................................",
"........................................",
"...                                  ...",
"...                                  ...",
"...                                  ...",
"...                                  ...",
"...                                  ...",
"........................................",
"........................................",
"........................................",
".....                              .....",
".....                              .....",
".....                              .....",
".....                              .....",
".....                              .....",
"........................................",
"........................................",
"........................................",
".......                          .......",
".......                          .......",
".......                          .......",
".......                          .......",
".......                          .......",
"........................................",
"........................................",
"........................................",
".........                      .........",
".........                      .........",
".........                      .........",
".........                      .........",
".........                      .........",
"........................................",
"........................................"
};
