/* XPM */
static char *_42ff5a083b44700ccc799b725a47480ePSDlGQ9OPOT4svw[] = {
/* columns rows colors chars-per-pixel */
"40 40 2 1 ",
"  c black",
". c gray50",
/* pixels */
"........................................",
"........................................",
".........                      .........",
".........                      .........",
".........                      .........",
".........                      .........",
".........                      .........",
"........................................",
"........................................",
"........................................",
".......                          .......",
".......                          .......",
".......                          .......",
".......                          .......",
".......                          .......",
"........................................",
"........................................",
"........................................",
".....                              .....",
".....                              .....",
".....                              .....",
".....                              .....",
".....                              .....",
"........................................",
"........................................",
"........................................",
"...                                  ...",
"...                                  ...",
"...                                  ...",
"...                                  ...",
"...                                  ...",
"........................................",
"........................................",
"........................................",
".                                      .",
".                                      .",
".                                      .",
".                                      .",
".                                      .",
"........................................"
};
