/* XPM */
static char *_b6d55ebf83b45a4aa0405eb8fc5ae38EN0Hm8cpNOPBWRzH[] = {
/* columns rows colors chars-per-pixel */
"40 40 3 1 ",
"  c #464646",
". c #646464",
"X c gray47",
/* pixels */
"XXXXXXXXXXXXXXXXXXXXXXXXXXXXXXXXXXXXXXXX",
"XXXXXXXXXXXXXXXXXXXXXXXXXXXXXXXXXXXXXXXX",
"XX....................................XX",
"XX....................................XX",
"XX....................................XX",
"XX....................................XX",
"XX....                            ....XX",
"XX....                            ....XX",
"XX....                            ....XX",
"XX....                            ....XX",
"XX....                            ....XX",
"XX....                            ....XX",
"XX....                            ....XX",
"XX....                            ....XX",
"XX....                            ....XX",
"XX....                            ....XX",
"XX....                            ....XX",
"XX....                            ....XX",
"XX....                            ....XX",
"XX....                            ....XX",
"XX....                            ....XX",
"XX....                            ....XX",
"XX....                            ....XX",
"XX....                            ....XX",
"XX....                            ....XX",
"XX....                            ....XX",
"XX....                            ....XX",
"XX....                            ....XX",
"XX....                            ....XX",
"XX....                            ....XX",
"XX....                            ....XX",
"XX....                            ....XX",
"XX....                            ....XX",
"XX....                            ....XX",
"XX....................................XX",
"XX....................................XX",
"XX....................................XX",
"XX....................................XX",
"XXXXXXXXXXXXXXXXXXXXXXXXXXXXXXXXXXXXXXXX",
"XXXXXXXXXXXXXXXXXXXXXXXXXXXXXXXXXXXXXXXX"
};
