/* XPM */
static char *_eb3764e43c8486985321448e8483b31ut2BN7XxReCC9Xz7[] = {
/* columns rows colors chars-per-pixel */
"40 40 239 2 ",
"   c None",
".  c #141313",
"X  c #191A1A",
"o  c #17171D",
"O  c #0F1A1D",
"+  c #1A1C24",
"@  c #1C2226",
"#  c #1B2533",
"$  c #1A313C",
"%  c #242525",
"&  c #26272B",
"*  c #252835",
"=  c #333436",
"-  c #23303C",
";  c #1E3A5A",
":  c #1C304B",
">  c #263946",
",  c #253A5C",
"<  c #313645",
"1  c #263769",
"2  c #2D3F78",
"3  c #1E415E",
"4  c #294449",
"5  c #35444C",
"6  c #2A4257",
"7  c #3B4756",
"8  c #275258",
"9  c #33535E",
"0  c #1F4362",
"q  c #284768",
"w  c #364468",
"e  c #3A5A6B",
"r  c #345869",
"t  c #284774",
"y  c #255377",
"u  c #395378",
"i  c #354A7C",
"p  c #36646D",
"a  c #396877",
"s  c #3B767E",
"d  c #2D6A74",
"f  c #45586B",
"g  c #515E79",
"h  c #475277",
"j  c #48636B",
"k  c #446D77",
"l  c #55697C",
"z  c #4E757B",
"x  c #2B4887",
"c  c #2A5B85",
"v  c #375786",
"b  c #325092",
"n  c #25618D",
"m  c #3B7982",
"M  c #2C6494",
"N  c #26699C",
"B  c #386698",
"V  c #3B7497",
"C  c #3C6989",
"Z  c #384FA3",
"A  c #286DA4",
"S  c #2B73AD",
"D  c #2B73A7",
"F  c #3676A7",
"G  c #2C79B5",
"H  c #347AB6",
"J  c #3E6CB5",
"K  c #495A84",
"L  c #4A5F96",
"P  c #48638C",
"I  c #457C8D",
"U  c #49788B",
"Y  c #517C85",
"T  c #456A99",
"R  c #536897",
"E  c #427293",
"W  c #587897",
"Q  c #566686",
"!  c #637295",
"~  c #455EB6",
"^  c #4867A6",
"/  c #546AA7",
"(  c #497CA9",
")  c #5376AA",
"_  c #4569B6",
"`  c #4C74B9",
"'  c #5573B8",
"]  c #5265B7",
"[  c #677CAD",
"{  c #3D64C7",
"}  c #3B7AC6",
"|  c #3D7BD1",
" . c #4966C5",
".. c #4C75C3",
"X. c #5476C7",
"o. c #4969D3",
"O. c #4978D6",
"+. c #5271D4",
"@. c #537BDB",
"#. c #567AD4",
"$. c #546FD3",
"%. c #607ED1",
"&. c #4C74E2",
"*. c #5475E0",
"=. c #1A9692",
"-. c #288489",
";. c #3B838D",
":. c #3F9299",
">. c #3C8A96",
",. c #3487BD",
"<. c #0DACAA",
"1. c #4A868F",
"2. c #58858B",
"3. c #478C99",
"4. c #558B93",
"5. c #5B979F",
"6. c #4987A4",
"7. c #598EAD",
"8. c #4D9CAB",
"9. c #4997A5",
"0. c #5898AA",
"q. c #5786B9",
"w. c #579BB3",
"e. c #4380B4",
"r. c #6297A6",
"t. c #6687BB",
"y. c #6495AE",
"u. c #47A1AC",
"i. c #4BA3B3",
"p. c #4DAAB9",
"a. c #53A6B4",
"s. c #59A5B8",
"d. c #4EB1BF",
"f. c #67A4AC",
"g. c #65AEBA",
"h. c #65A7B4",
"j. c #79B5BE",
"k. c #71ADB6",
"l. c #05C2BB",
"z. c #2D87C4",
"x. c #3485C4",
"c. c #348CCD",
"v. c #3988CC",
"b. c #3A90CD",
"n. c #358DD3",
"m. c #388BD9",
"M. c #3694DA",
"N. c #3897DB",
"B. c #3C8FE8",
"V. c #359CE3",
"C. c #3896E6",
"Z. c #3F8FF0",
"A. c #3BA1E4",
"S. c #4E84CC",
"D. c #5584C9",
"F. c #579AC6",
"G. c #5584D8",
"H. c #5988D5",
"J. c #4797D6",
"K. c #5A98D7",
"L. c #4795CF",
"P. c #6484D7",
"I. c #6697D9",
"U. c #7892DA",
"Y. c #7486C8",
"T. c #5BAEC5",
"R. c #5BADCB",
"E. c #5AA7C2",
"W. c #58B6C8",
"Q. c #5EAAD7",
"!. c #5EBFD5",
"~. c #65ADC6",
"^. c #62BCCE",
"/. c #66B7C8",
"(. c #66A7D7",
"). c #63BDD3",
"_. c #63B6D8",
"`. c #75B5D3",
"'. c #4D85E8",
"]. c #5788E8",
"[. c #4794E9",
"{. c #5696E5",
"}. c #558CF4",
"|. c #5B95FA",
" X c #4D88F5",
".X c #6485E5",
"XX c #6399E8",
"oX c #629BF3",
"OX c #7F99E6",
"+X c #49A4EE",
"@X c #59A3E2",
"#X c #65A6E6",
"$X c #79A5EB",
"%X c #67B8E5",
"&X c #73B7E6",
"*X c #68A7F8",
"=X c #6BB9F6",
"-X c #71B6F7",
";X c #10CECA",
":X c #09E7DD",
">X c #24E2D9",
",X c #07FEF2",
"<X c #5FC6DB",
"1X c #5ECDDC",
"2X c #59C3D4",
"3X c #66C1CF",
"4X c #63C3DB",
"5X c #68C4D6",
"6X c #76CBDA",
"7X c #5FD7E7",
"8X c #6CC2E3",
"9X c #65CEE2",
"0X c #69CCE7",
"qX c #6CDAEB",
"wX c #67D4E8",
"eX c #78D9E9",
"rX c #6BC7F3",
"tX c #75C7F7",
"yX c #69D8F5",
"uX c #75D8F9",
"iX c #75C4E9",
"pX c #6DE4FD",
"aX c #6BECFE",
"sX c #69E4F6",
"dX c #7AE1F1",
"fX c #73EDFE",
"gX c #75E4F6",
"hX c #7BF0FF",
"jX c #86A0DF",
"kX c #93AEE9",
"lX c #83D0DF",
"zX c #81DBE9",
"xX c #8CD9FD",
"cX c #85E8F8",
"vX c #83F1FF",
"bX c #8CF2FF",
"nX c #96F2FE",
"mX c #92EBF7",
"MX c #A2F5FF",
/* pixels */
"                                      X k                                       ",
"                                      j.bX8.    r.h.                            ",
"                                      9.aXa.                                    ",
"                      f.9.    p 3Xp   s aX4     - 8   4.        z               ",
"                      5.;.    2.nXqXI u.aXp.X   8.W.  a       2.g.              ",
"                                a.vXvXhXfXaXqX5XsX9.                            ",
"                              8 gXnXMXaXaXfXsXcXyXa.2.j.j         4 0.5         ",
"            9.m       :.7XW.m 1XnXMXbXaXaXaXgXqX9XwXY zXcX4.      f.mXz         ",
"          # bXeX@   ;.aX2X2X;.aXbXvXaXaXfXaXsX9X<X4Xg.a.eXdX1.    1.3X&         ",
"          . !.fX7X2XaXaXd :.9.aXwXaXaXaXaXaXsXW.E.!.6Xs 6XeXdX3X/.9X^.=         ",
"        %     9.aXaXaXaXi.1XaXW.;X=.1XaXaXaXu.<.-.<XzXr 5X6XeXdXeXeXlXj.        ",
"        h.a   O fXaXaXaXfXm fXW.>X,X=.sXaXd.l.;X-.9XzXa /.s.s.wX9X4X9XlXX       ",
"        k.eX> 1.fXaXaXaXfXi.6XvX:.:Xl.2XyX-.;X<.i.sXk.9./.e I <X!.).wXz         ",
"        > p.gXhXhXfXwX1XfXyXp mXcX8.>.<X<X3.-.a.gX6Xp ~.T.T.i.k 9.4Xr.          ",
"            p uXcXcX8.g.9XpXW.s eXqX4X).).4XwXdX`.9 w.T.T.R.a ~.9.0XY           ",
"      d I     I eXeX4XyX8.pXpX9Xd 1.s.s.^.5Xg.k p w.R.T.T.R.R.6._.yXw.  j j z   ",
"      r %X> = 6.8X&X%XrXw.0XuXpXyX).9.a e a I 0.T.^.w.R.E.R.%X$ 6.rXtX~.(.rXxXf ",
"        V %X_.%X(.6.6.%XiX0.uXuXuXyX0X9X5X).).4X).k U 6.F.(.6.    V =X%X=XtXy.  ",
"          6.#X(.(     q &X&XtXtXuXuXw.s.0X0X0X8Xh.r.7.E F.Q.@     u #XK.#X`.%   ",
"          6 I.I.B       r #X&XtXtXuXh.E.w._.8X&X7.7.U v q.(     v I.H.H.K.$X5   ",
"  u P     + D.H.XX#       ` #X-X-X=X=X=X%X%X&X(.E t.) D.B <   . H.$XG.#.#.].t.  ",
"  B *Xq   b X.v f       , ^ XXoX*X*X*X*X*X#XI.q.P X.H.{.q       , O.*.@.+.@.$X+ ",
"  * O.]._ #.w       R h v ].].}.|.|.oX*XXXG...i ` @.].v   Q L     #  .&.+.@.U.% ",
"    { &.#.[         [ ^   . t O.}.|.oXXXG._ u ` @.'.x     t./       : &.+.@.P   ",
"  x &.o.$.W                   b  X}.].H.^ K ..'.O.v / o             1 +.+.'     ",
"+ $X.Xo. .[                 # O. X'.G.` / ` ..T q.I.b             1 @.#.t.&     ",
"& H.*.o. .U.g             ; | [.{.G.S.J _ J } S.v #             % P.{ _ %./     ",
"  2 *.$.] U.OX7         t XXZ.[.[.J.} J } m.B.q                 u ].*   Z *.K   ",
"  . +.P.* < Y.!         K.-XB.A @X[.v.} m.B.C.M ,               : x     ~ .XR   ",
"  * U.jXX   h l         J.+XG   e (.n.v.m.m.m.N @Xv                   . / R     ",
"  w kXkXK               F tXM.;   G M.c.n.v.S S n.> & e.6                       ",
"    = g [               - K.+XV.M.V.M.v.x.M A S A 0                             ",
"                          & c S S A n.K.b.c.n.M.N.z.H c                         ",
"                      f C         7 L.N.N.c.G z.N.V.N                           ",
"                                5 F.c.N y     v V.V.q                           ",
"                          W e   F.N.y       a J.N.A X                           ",
"                        @ V c.z.A.N.S y c S b.D n ,.z.A                         ",
"                      @ V ,.J.A.V.J.L.b.x.x.H x.M.c.n q                         ",
"                          = D V.V.M.c.H > q t c M F 3                           ",
"                              y M M M q                                         "
};
